<?xml version="1.0" encoding="UTF-8" standalone="no"?>
<!DOCTYPE svg PUBLIC "-//W3C//DTD SVG 1.0//EN" "http://www.w3.org/TR/2001/PR-SVG-20010719/DTD/svg10.dtd">
<svg width="28cm" height="19cm" viewBox="114 288 553 362" xmlns="http://www.w3.org/2000/svg" xmlns:xlink="http://www.w3.org/1999/xlink">
  <g>
    <rect style="fill: #ffffff" x="132.056" y="516.831" width="525.9" height="28"/>
    <rect style="fill: none; fill-opacity:0; stroke-width: 2; stroke: #000000" x="132.056" y="516.831" width="525.9" height="28"/>
    <text font-size="16" style="fill: #000000;text-anchor:middle;font-family:sans-serif;font-style:normal;font-weight:700" x="395.006" y="535.831">UtilitaireNotificationSysteme</text>
    <rect style="fill: #ffffff" x="132.056" y="544.831" width="525.9" height="20"/>
    <rect style="fill: none; fill-opacity:0; stroke-width: 2; stroke: #000000" x="132.056" y="544.831" width="525.9" height="20"/>
    <text font-size="12.8" style="fill: #000000;text-anchor:start;font-family:monospace;font-style:normal;font-weight:normal" x="135.056" y="558.831">-listeObservateurs: UtilitaireNotificationSysteme[]</text>
    <rect style="fill: #ffffff" x="132.056" y="564.831" width="525.9" height="84"/>
    <rect style="fill: none; fill-opacity:0; stroke-width: 2; stroke: #000000" x="132.056" y="564.831" width="525.9" height="84"/>
    <text font-size="12.8" style="fill: #000000;text-anchor:start;font-family:monospace;font-style:normal;font-weight:normal" x="135.056" y="578.831">+abonnement(o:PossedeUtilitaireNotificationSysteme)</text>
    <text font-size="12.8" style="fill: #000000;text-anchor:start;font-family:monospace;font-style:normal;font-weight:normal" x="135.056" y="594.831">+desabonnement(o:PossedeUtilitaireNotificationSysteme)</text>
    <text font-size="12.8" style="fill: #000000;text-anchor:start;font-family:monospace;font-style:normal;font-weight:normal" x="135.056" y="610.831">+notifierObservateurs(o:Object[])</text>
    <text font-size="12.8" style="fill: #000000;text-anchor:start;font-family:monospace;font-style:normal;font-weight:normal" x="135.056" y="626.831">+receptionNotification(source:PossedeUtilitaireNotificationSysteme,</text>
    <text font-size="12.8" style="fill: #000000;text-anchor:start;font-family:monospace;font-style:normal;font-weight:normal" x="135.056" y="642.831">                       o:Object[])</text>
  </g>
  <g>
    <rect style="fill: #ffffff" x="117.2" y="289.072" width="549" height="28"/>
    <rect style="fill: none; fill-opacity:0; stroke-width: 2; stroke: #000000" x="117.2" y="289.072" width="549" height="28"/>
    <text font-size="16" style="fill: #000000;text-anchor:middle;font-family:sans-serif;font-style:normal;font-weight:700" x="391.7" y="308.072">InterfacePossedeUtilitaireNotificationSysteme</text>
    <rect style="fill: #ffffff" x="117.2" y="317.072" width="549" height="8"/>
    <rect style="fill: none; fill-opacity:0; stroke-width: 2; stroke: #000000" x="117.2" y="317.072" width="549" height="8"/>
    <rect style="fill: #ffffff" x="117.2" y="325.072" width="549" height="20"/>
    <rect style="fill: none; fill-opacity:0; stroke-width: 2; stroke: #000000" x="117.2" y="325.072" width="549" height="20"/>
    <text font-size="12.8" style="fill: #000000;text-anchor:start;font-family:monospace;font-style:normal;font-weight:normal" x="120.2" y="339.072">+obtenirUtilitaireNotificationSysteme(): UtilitaireNotificationSysteme</text>
  </g>
  <g>
    <rect style="fill: #ffffff" x="115.356" y="408.569" width="70.2" height="28"/>
    <rect style="fill: none; fill-opacity:0; stroke-width: 2; stroke: #000000" x="115.356" y="408.569" width="70.2" height="28"/>
    <text font-size="16" style="fill: #000000;text-anchor:middle;font-family:sans-serif;font-style:normal;font-weight:700" x="150.456" y="427.569">Objet1</text>
    <rect style="fill: #ffffff" x="115.356" y="436.569" width="70.2" height="8"/>
    <rect style="fill: none; fill-opacity:0; stroke-width: 2; stroke: #000000" x="115.356" y="436.569" width="70.2" height="8"/>
    <rect style="fill: #ffffff" x="115.356" y="444.569" width="70.2" height="8"/>
    <rect style="fill: none; fill-opacity:0; stroke-width: 2; stroke: #000000" x="115.356" y="444.569" width="70.2" height="8"/>
  </g>
  <g>
    <rect style="fill: #ffffff" x="594.421" y="414.509" width="70.2" height="28"/>
    <rect style="fill: none; fill-opacity:0; stroke-width: 2; stroke: #000000" x="594.421" y="414.509" width="70.2" height="28"/>
    <text font-size="16" style="fill: #000000;text-anchor:middle;font-family:sans-serif;font-style:normal;font-weight:700" x="629.521" y="433.509">Objet2</text>
    <rect style="fill: #ffffff" x="594.421" y="442.509" width="70.2" height="8"/>
    <rect style="fill: none; fill-opacity:0; stroke-width: 2; stroke: #000000" x="594.421" y="442.509" width="70.2" height="8"/>
    <rect style="fill: #ffffff" x="594.421" y="450.509" width="70.2" height="8"/>
    <rect style="fill: none; fill-opacity:0; stroke-width: 2; stroke: #000000" x="594.421" y="450.509" width="70.2" height="8"/>
  </g>
  <g>
    <polyline style="fill: none; fill-opacity:0; stroke-width: 2; stroke-dasharray: 8; stroke: #000000" points="391.7,364.315 391.7,384.822 150.456,384.822 150.456,407.564 "/>
    <polygon style="fill: #ffffff" points="399.7,364.315 391.7,348.315 383.7,364.315 "/>
    <polygon style="fill: none; fill-opacity:0; stroke-width: 2; stroke: #000000" points="399.7,364.315 391.7,348.315 383.7,364.315 "/>
  </g>
  <g>
    <polyline style="fill: none; fill-opacity:0; stroke-width: 2; stroke-dasharray: 8; stroke: #000000" points="391.7,364.306 391.7,384.52 629.521,384.52 629.521,413.504 "/>
    <polygon style="fill: #ffffff" points="399.7,364.306 391.7,348.306 383.7,364.306 "/>
    <polygon style="fill: none; fill-opacity:0; stroke-width: 2; stroke: #000000" points="399.7,364.306 391.7,348.306 383.7,364.306 "/>
  </g>
  <g>
    <polyline style="fill: none; fill-opacity:0; stroke-width: 2; stroke: #000000" points="395.006,515.876 395.006,490.739 150.456,490.739 150.456,466.731 "/>
    <polygon style="fill: #ffffff" points="150.456,453.559 158.456,461.559 150.456,469.559 142.456,461.559 "/>
    <polygon style="fill: none; fill-opacity:0; stroke-width: 2; stroke: #000000" points="150.456,453.559 158.456,461.559 150.456,469.559 142.456,461.559 "/>
    <text font-size="12.7998" style="fill: #000000;text-anchor:middle;font-family:monospace;font-style:normal;font-weight:normal" x="317.588" y="556.333">
      <tspan x="317.588" y="556.333"></tspan>
    </text>
  </g>
  <g>
    <polyline style="fill: none; fill-opacity:0; stroke-width: 2; stroke: #000000" points="395.006,515.847 395.006,491.528 629.521,491.528 629.521,472.684 "/>
    <polygon style="fill: #ffffff" points="629.521,459.512 637.521,467.512 629.521,475.512 621.521,467.512 "/>
    <polygon style="fill: none; fill-opacity:0; stroke-width: 2; stroke: #000000" points="629.521,459.512 637.521,467.512 629.521,475.512 621.521,467.512 "/>
    <text font-size="12.7998" style="fill: #000000;text-anchor:middle;font-family:monospace;font-style:normal;font-weight:normal" x="399.259" y="594.033">
      <tspan x="399.259" y="594.033"></tspan>
    </text>
  </g>
</svg>
